{
	"asset":{
		"generator":"Khronos glTF Blender I/O v4.0.43",
		"version":"2.0"
	},
	"scene":0,
	"scenes":[
		{
			"name":"Scene",
			"nodes":[
				0,
				1,
				2
			]
		}
	],
	"nodes":[
		{
			"mesh":0,
			"name":"Icosphere",
			"scale":[
				38.25436019897461,
				38.25436019897461,
				38.25436019897461
			]
		},
		{
			"mesh":1,
			"name":"Icosphere.001"
		},
		{
			"mesh":2,
			"name":"cage"
		}
	],
	"materials":[
		{
			"doubleSided":true,
			"name":"Material.001",
			"normalTexture":{
				"index":0
			},
			"pbrMetallicRoughness":{
				"baseColorTexture":{
					"index":1
				},
				"metallicFactor":0,
				"metallicRoughnessTexture":{
					"index":2
				}
			}
		},
		{
			"doubleSided":true,
			"name":"Material.002",
			"pbrMetallicRoughness":{
				"baseColorFactor":[
					0.800000011920929,
					0.800000011920929,
					0.800000011920929,
					1
				],
				"metallicFactor":0,
				"roughnessFactor":0.699999988079071
			}
		}
	],
	"meshes":[
		{
			"name":"Icosphere",
			"primitives":[
				{
					"attributes":{
						"POSITION":0,
						"NORMAL":1,
						"TEXCOORD_0":2
					},
					"indices":3,
					"material":0
				}
			]
		},
		{
			"name":"Icosphere.001",
			"primitives":[
				{
					"attributes":{
						"POSITION":4,
						"NORMAL":5,
						"TEXCOORD_0":6
					},
					"indices":7,
					"material":1
				}
			]
		},
		{
			"name":"Icosphere.003",
			"primitives":[
				{
					"attributes":{
						"POSITION":8,
						"NORMAL":9,
						"TEXCOORD_0":10
					},
					"indices":3,
					"material":0
				}
			]
		}
	],
	"textures":[
		{
			"sampler":0,
			"source":0
		},
		{
			"sampler":0,
			"source":1
		},
		{
			"sampler":0,
			"source":2
		}
	],
	"images":[
		{
			"mimeType":"image/jpeg",
			"name":"aster_normal",
			"uri":"aster_normal.jpg"
		},
		{
			"mimeType":"image/jpeg",
			"name":"aster_diffuseOriginal",
			"uri":"aster_diffuseOriginal.jpg"
		},
		{
			"mimeType":"image/png",
			"name":"roughness",
			"uri":"roughness.png"
		}
	],
	"accessors":[
		{
			"bufferView":0,
			"componentType":5126,
			"count":2809,
			"max":[
				1.0718281269073486,
				1.1652294397354126,
				1.1556318998336792
			],
			"min":[
				-1.1168408393859863,
				-1.0759392976760864,
				-1.252259373664856
			],
			"type":"VEC3"
		},
		{
			"bufferView":1,
			"componentType":5126,
			"count":2809,
			"type":"VEC3"
		},
		{
			"bufferView":2,
			"componentType":5126,
			"count":2809,
			"type":"VEC2"
		},
		{
			"bufferView":3,
			"componentType":5123,
			"count":15360,
			"type":"SCALAR"
		},
		{
			"bufferView":4,
			"componentType":5126,
			"count":7667,
			"max":[
				1.0791674852371216,
				1.1716902256011963,
				1.1628072261810303
			],
			"min":[
				-1.118566870689392,
				-1.0867518186569214,
				-1.2545855045318604
			],
			"type":"VEC3"
		},
		{
			"bufferView":5,
			"componentType":5126,
			"count":7667,
			"type":"VEC3"
		},
		{
			"bufferView":6,
			"componentType":5126,
			"count":7667,
			"type":"VEC2"
		},
		{
			"bufferView":7,
			"componentType":5123,
			"count":15360,
			"type":"SCALAR"
		},
		{
			"bufferView":8,
			"componentType":5126,
			"count":2809,
			"max":[
				1.1097419261932373,
				1.2054040431976318,
				1.1966794729232788
			],
			"min":[
				-1.1507512331008911,
				-1.1175302267074585,
				-1.2897446155548096
			],
			"type":"VEC3"
		},
		{
			"bufferView":9,
			"componentType":5126,
			"count":2809,
			"type":"VEC3"
		},
		{
			"bufferView":10,
			"componentType":5126,
			"count":2809,
			"type":"VEC2"
		}
	],
	"bufferViews":[
		{
			"buffer":0,
			"byteLength":33708,
			"byteOffset":0,
			"target":34962
		},
		{
			"buffer":0,
			"byteLength":33708,
			"byteOffset":33708,
			"target":34962
		},
		{
			"buffer":0,
			"byteLength":22472,
			"byteOffset":67416,
			"target":34962
		},
		{
			"buffer":0,
			"byteLength":30720,
			"byteOffset":89888,
			"target":34963
		},
		{
			"buffer":0,
			"byteLength":92004,
			"byteOffset":120608,
			"target":34962
		},
		{
			"buffer":0,
			"byteLength":92004,
			"byteOffset":212612,
			"target":34962
		},
		{
			"buffer":0,
			"byteLength":61336,
			"byteOffset":304616,
			"target":34962
		},
		{
			"buffer":0,
			"byteLength":30720,
			"byteOffset":365952,
			"target":34963
		},
		{
			"buffer":0,
			"byteLength":33708,
			"byteOffset":396672,
			"target":34962
		},
		{
			"buffer":0,
			"byteLength":33708,
			"byteOffset":430380,
			"target":34962
		},
		{
			"buffer":0,
			"byteLength":22472,
			"byteOffset":464088,
			"target":34962
		}
	],
	"samplers":[
		{
			"magFilter":9729,
			"minFilter":9987
		}
	],
	"buffers":[
		{
			"byteLength":486560,
			"uri":"scene.bin"
		}
	]
}
